<?xml version="1.0" encoding="iso-8859-1"?>
<!-- Generator: Adobe Illustrator 19.0.0, SVG Export Plug-In . SVG Version: 6.00 Build 0)  -->
<svg version="1.1" id="Capa_1" xmlns="http://www.w3.org/2000/svg" xmlns:xlink="http://www.w3.org/1999/xlink" x="0px" y="0px"
	 viewBox="0 0 490 490" style="enable-background:new 0 0 490 490;" xml:space="preserve">
<g>
	<path d="M167.994,25.803H10.419C4.665,25.803,0,30.468,0,36.223v443.176c0,5.755,4.665,10.419,10.419,10.419h157.575
		c5.754,0,10.419-4.665,10.419-10.419V36.223C178.413,30.468,173.748,25.803,167.994,25.803z M157.575,468.979H20.838V46.642
		h136.736V468.979z"/>
	<path d="M89.209,171.672c28.724,0,52.096-23.372,52.096-52.096c0-28.725-23.372-52.096-52.096-52.096
		c-28.724,0-52.096,23.371-52.096,52.096C37.113,148.3,60.485,171.672,89.209,171.672z M89.209,88.319
		c17.236,0,31.258,14.021,31.258,31.257s-14.021,31.257-31.258,31.257c-17.236,0-31.257-14.021-31.257-31.257
		S71.973,88.319,89.209,88.319z"/>
	<path d="M310.044,163.537c28.724,0,52.096-23.372,52.096-52.096c0-28.725-23.372-52.096-52.096-52.096
		c-28.724,0-52.096,23.371-52.096,52.096C257.948,140.164,281.32,163.537,310.044,163.537z M310.044,80.183
		c17.236,0,31.258,14.021,31.258,31.257c0,17.236-14.021,31.257-31.258,31.257c-17.236,0-31.258-14.021-31.258-31.257
		C278.786,94.204,292.808,80.183,310.044,80.183z"/>
	<rect x="78.79" y="202.929" width="20.838" height="234.792"/>
	<path d="M489.345,435.921L374.642,7.839c-1.553-5.378-6.632-8.701-12.759-7.366L209.676,41.259
		c-5.561,1.49-8.857,7.204-7.367,12.759l114.708,428.076c1.246,4.655,5.453,7.728,10.058,7.728c0.89,0,1.8-0.117,2.702-0.362
		l152.202-40.781C488.383,446.841,491.44,442.049,489.345,435.921z M334.446,466.639L225.131,58.689l132.082-35.394l109.31,407.956
		L334.446,466.639z"/>
	<path d="M341.686,189.259l60.77,226.795l-20.126,5.393l-60.77-226.795L341.686,189.259z"/>
</g>
<g>
</g>
<g>
</g>
<g>
</g>
<g>
</g>
<g>
</g>
<g>
</g>
<g>
</g>
<g>
</g>
<g>
</g>
<g>
</g>
<g>
</g>
<g>
</g>
<g>
</g>
<g>
</g>
<g>
</g>
</svg>
