<?xml version="1.0" encoding="iso-8859-1"?>
<!-- Generator: Adobe Illustrator 19.0.0, SVG Export Plug-In . SVG Version: 6.00 Build 0)  -->
<svg version="1.1" id="Layer_1" xmlns="http://www.w3.org/2000/svg" xmlns:xlink="http://www.w3.org/1999/xlink" x="0px" y="0px"
	 viewBox="0 0 512 512" style="enable-background:new 0 0 512 512;" xml:space="preserve">
<circle style="fill:#EA8953;" cx="256" cy="256" r="256"/>
<path style="opacity:0.1;enable-background:new    ;" d="M512,256c0-12.859-0.976-25.493-2.805-37.845l-107.2-107.163l-0.533-0.587
	c-0.693-0.64-1.653-1.067-2.667-1.067h-80.64c-2.133,0-3.84,1.707-3.84,3.787v12.533l-15.253-15.2
	c-0.693-0.693-1.653-1.12-2.72-1.12h-80.693c-2.08,0-3.84,1.707-3.84,3.787v12.587l-14.773-14.72l-0.533-0.587
	c-0.693-0.64-1.6-1.067-2.667-1.067h-80.64c-2.133,0-3.84,1.707-3.84,3.787v285.707c0,0.96,0.373,1.867,0.907,2.507l0.213,0.213
	l107.637,107.637C230.48,511.024,243.125,512,256,512C397.387,512,512,397.387,512,256z"/>
<path style="fill:#F6C358;" d="M193.84,120h-80.656c-2.128,0-3.851,1.707-3.851,3.813v275.045c0,2.107,1.723,3.813,3.851,3.813
	h80.661c2.128,0,3.851-1.707,3.851-3.813V123.813C197.691,121.707,195.968,120,193.84,120z"/>
<path style="fill:#3EA69B;" d="M296.331,120h-80.661c-2.128,0-3.851,1.707-3.851,3.813v275.045c0,2.107,1.723,3.813,3.851,3.813
	h80.661c2.128,0,3.851-1.707,3.851-3.813V123.813C300.176,121.707,298.453,120,296.331,120z"/>
<path style="fill:#2D93BA;" d="M398.816,120H318.16c-2.128,0-3.851,1.707-3.851,3.813v275.045c0,2.107,1.723,3.813,3.851,3.813
	h80.661c2.128,0,3.851-1.707,3.851-3.813V123.813C402.667,121.707,400.944,120,398.816,120z"/>
<path style="fill:#FCD462;" d="M193.84,109.333h-80.656c-2.128,0-3.851,1.707-3.851,3.813v275.045c0,2.107,1.723,3.813,3.851,3.813
	h80.661c2.128,0,3.851-1.707,3.851-3.813V113.147C197.691,111.04,195.968,109.333,193.84,109.333z"/>
<rect x="125.333" y="125.333" style="fill:#FFFFFF;" width="56.352" height="107.307"/>
<rect x="125.333" y="226.027" style="fill:#EBF0F3;" width="56.352" height="6.624"/>
<path style="fill:#44C4A1;" d="M296.331,109.333h-80.661c-2.128,0-3.851,1.707-3.851,3.813v275.045c0,2.107,1.723,3.813,3.851,3.813
	h80.661c2.128,0,3.851-1.707,3.851-3.813V113.147C300.176,111.04,298.453,109.333,296.331,109.333z"/>
<path style="fill:#27A2DB;" d="M398.816,109.333H318.16c-2.128,0-3.851,1.707-3.851,3.813v275.045c0,2.107,1.723,3.813,3.851,3.813
	h80.661c2.128,0,3.851-1.707,3.851-3.813V113.147C402.667,111.04,400.944,109.333,398.816,109.333z"/>
<rect x="227.824" y="125.333" style="fill:#FFFFFF;" width="56.352" height="107.307"/>
<rect x="227.824" y="226.027" style="fill:#EBF0F3;" width="56.352" height="6.624"/>
<rect x="330.309" y="125.333" style="fill:#FFFFFF;" width="56.352" height="107.307"/>
<g>
	<rect x="330.309" y="226.027" style="fill:#EBF0F3;" width="56.352" height="6.624"/>
	<rect x="133.035" y="136.907" style="fill:#EBF0F3;" width="40.96" height="4"/>
	<rect x="133.035" y="152.267" style="fill:#EBF0F3;" width="40.96" height="4"/>
	<rect x="133.035" y="167.627" style="fill:#EBF0F3;" width="40.96" height="4"/>
	<rect x="133.035" y="182.987" style="fill:#EBF0F3;" width="40.96" height="4"/>
	<rect x="133.035" y="198.347" style="fill:#EBF0F3;" width="40.96" height="4"/>
	<rect x="133.035" y="213.707" style="fill:#EBF0F3;" width="40.96" height="4"/>
	<rect x="235.52" y="136.907" style="fill:#EBF0F3;" width="40.96" height="4"/>
	<rect x="235.52" y="152.267" style="fill:#EBF0F3;" width="40.96" height="4"/>
	<rect x="235.52" y="167.627" style="fill:#EBF0F3;" width="40.96" height="4"/>
	<rect x="235.52" y="182.987" style="fill:#EBF0F3;" width="40.96" height="4"/>
	<rect x="235.52" y="198.347" style="fill:#EBF0F3;" width="40.96" height="4"/>
	<rect x="235.52" y="213.707" style="fill:#EBF0F3;" width="40.96" height="4"/>
	<rect x="338.027" y="136.907" style="fill:#EBF0F3;" width="40.96" height="4"/>
	<rect x="338.027" y="152.267" style="fill:#EBF0F3;" width="40.96" height="4"/>
	<rect x="338.027" y="167.627" style="fill:#EBF0F3;" width="40.96" height="4"/>
	<rect x="338.027" y="182.987" style="fill:#EBF0F3;" width="40.96" height="4"/>
	<rect x="338.027" y="198.347" style="fill:#EBF0F3;" width="40.96" height="4"/>
	<rect x="338.027" y="213.707" style="fill:#EBF0F3;" width="40.96" height="4"/>
</g>
<circle style="fill:#64798A;" cx="153.509" cy="353.547" r="18.939"/>
<circle style="fill:#FFFFFF;" cx="153.509" cy="353.547" r="15.264"/>
<circle style="fill:#64798A;" cx="256" cy="353.547" r="18.939"/>
<circle style="fill:#FFFFFF;" cx="256" cy="353.547" r="15.264"/>
<circle style="fill:#64798A;" cx="358.507" cy="353.547" r="18.944"/>
<circle style="fill:#FFFFFF;" cx="358.507" cy="353.547" r="15.264"/>
<g>
</g>
<g>
</g>
<g>
</g>
<g>
</g>
<g>
</g>
<g>
</g>
<g>
</g>
<g>
</g>
<g>
</g>
<g>
</g>
<g>
</g>
<g>
</g>
<g>
</g>
<g>
</g>
<g>
</g>
</svg>
