<?xml version="1.0" encoding="iso-8859-1"?>
<!-- Generator: Adobe Illustrator 19.0.0, SVG Export Plug-In . SVG Version: 6.00 Build 0)  -->
<svg version="1.1" id="Layer_1" xmlns="http://www.w3.org/2000/svg" xmlns:xlink="http://www.w3.org/1999/xlink" x="0px" y="0px"
	 viewBox="0 0 512 512" style="enable-background:new 0 0 512 512;" xml:space="preserve">
<g>
	<g>
		<path d="M26.392,0v512h459.217V0H26.392z M374.763,15.835h58.062v258.639h-58.062V15.835z M226.969,15.835h58.062v258.639h-58.062
			V15.835z M79.175,15.835h58.062v258.639H79.175V15.835z M174.186,496.165H42.227V15.835H63.34v274.474h89.732V15.835h21.113
			V496.165z M321.979,496.165H190.021V15.835h21.113v274.474h89.732V15.835h21.113V496.165z M469.773,496.165H337.814V15.835h21.113
			v274.474h89.732V15.835h21.113V496.165z"/>
	</g>
</g>
<g>
	<g>
		<rect x="60.701" y="316.701" width="95.01" height="15.835"/>
	</g>
</g>
<g>
	<g>
		<rect x="60.701" y="353.649" width="95.01" height="15.835"/>
	</g>
</g>
<g>
	<g>
		<rect x="208.495" y="316.701" width="95.01" height="15.835"/>
	</g>
</g>
<g>
	<g>
		<rect x="208.495" y="353.649" width="95.01" height="15.835"/>
	</g>
</g>
<g>
	<g>
		<rect x="356.289" y="316.701" width="95.01" height="15.835"/>
	</g>
</g>
<g>
	<g>
		<rect x="356.289" y="353.649" width="95.01" height="15.835"/>
	</g>
</g>
<g>
	<g>
		<path d="M108.206,395.876c-21.829,0-39.588,17.758-39.588,39.588s17.758,39.588,39.588,39.588s39.588-17.758,39.588-39.588
			S130.035,395.876,108.206,395.876z M108.206,459.216c-13.097,0-23.753-10.655-23.753-23.753s10.656-23.753,23.753-23.753
			c13.097,0,23.753,10.655,23.753,23.753S121.303,459.216,108.206,459.216z"/>
	</g>
</g>
<g>
	<g>
		<path d="M256,395.876c-21.829,0-39.588,17.758-39.588,39.588s17.759,39.588,39.588,39.588c21.829,0,39.588-17.758,39.588-39.588
			S277.829,395.876,256,395.876z M256,459.216c-13.097,0-23.753-10.655-23.753-23.753s10.656-23.753,23.753-23.753
			c13.097,0,23.753,10.655,23.753,23.753S269.097,459.216,256,459.216z"/>
	</g>
</g>
<g>
	<g>
		<path d="M403.794,395.876c-21.829,0-39.588,17.758-39.588,39.588s17.758,39.588,39.588,39.588s39.588-17.758,39.588-39.588
			S425.623,395.876,403.794,395.876z M403.794,459.216c-13.097,0-23.753-10.655-23.753-23.753s10.656-23.753,23.753-23.753
			c13.097,0,23.753,10.655,23.753,23.753S416.89,459.216,403.794,459.216z"/>
	</g>
</g>
<g>
</g>
<g>
</g>
<g>
</g>
<g>
</g>
<g>
</g>
<g>
</g>
<g>
</g>
<g>
</g>
<g>
</g>
<g>
</g>
<g>
</g>
<g>
</g>
<g>
</g>
<g>
</g>
<g>
</g>
</svg>
